Coordinates
version=1
nRows=27
nColumns=12
inDegrees=yes

Units are S.I. units (second, meters, Newtons, ...)
Angles are in degrees

endheader
time	SC_y	SC_z	SC_x	AC_y	AC_z	AC_x	GH_y	GH_z	GH_yy	EL_x	PS_y
       0.0              -46.04          8.324          60.79          55.06         -9.266          7.883         -165.9          20.32          168.4          20.64           40.7
  0.001148              -46.03          8.327          60.78          55.06         -9.267          7.884         -165.8          20.33          168.4          20.65          40.71
  0.002297              -46.03          8.329          60.78          55.06         -9.267          7.886         -165.8          20.33          168.4          20.66          40.72
  0.003445              -46.02          8.333          60.77          55.05         -9.268          7.887         -165.7          20.34          168.4          20.68          40.73
  0.004594              -46.02          8.336          60.77          55.05         -9.268          7.889         -165.7          20.35          168.4          20.69          40.74
  0.005742              -46.01          8.339          60.76          55.04         -9.269          7.891         -165.7          20.35          168.4          20.71          40.75
  0.006891              -46.01          8.343          60.76          55.04         -9.269          7.893         -165.6          20.36          168.4          20.72          40.77
  0.008039               -46.0          8.347          60.75          55.03          -9.27          7.895         -165.6          20.37          168.4          20.74          40.78
  0.009188              -45.99          8.352          60.74          55.03         -9.271          7.897         -165.5          20.38          168.4          20.76           40.8
   0.01034              -45.99          8.356          60.74          55.02         -9.272            7.9         -165.4          20.39          168.4          20.78          40.81
   0.01148              -45.98          8.361          60.73          55.02         -9.273          7.903         -165.4           20.4          168.4           20.8          40.83
   0.01263              -45.97          8.367          60.72          55.01         -9.273          7.905         -165.3          20.41          168.4          20.83          40.85
   0.01378              -45.96          8.372          60.71          55.01         -9.274          7.908         -165.2          20.42          168.4          20.85          40.87
   0.01493              -45.95          8.379           60.7           55.0         -9.276          7.912         -165.1          20.44          168.5          20.88          40.89
   0.01608              -45.94          8.385          60.69          54.99         -9.277          7.915         -165.1          20.45          168.5          20.91          40.92
   0.01723              -45.93          8.393          60.68          54.98         -9.278          7.919         -165.0          20.47          168.5          20.94          40.95
   0.01838              -45.92          8.401          60.67          54.97         -9.279          7.923         -164.9          20.48          168.5          20.98          40.97
   0.01952               -45.9          8.409          60.66          54.96         -9.281          7.928         -164.7           20.5          168.5          21.02          41.01
   0.02067              -45.89          8.419          60.64          54.95         -9.282          7.933         -164.6          20.52          168.5          21.06          41.04
   0.02182              -45.87          8.429          60.63          54.94         -9.284          7.938         -164.5          20.54          168.5           21.1          41.08
   0.02297              -45.86           8.44          60.61          54.93         -9.286          7.944         -164.3          20.57          168.5          21.15          41.12
   0.02412              -45.84          8.453          60.59          54.91         -9.288          7.951         -164.2          20.59          168.5          21.21          41.16
   0.02527              -45.81          8.467          60.57          54.89         -9.291          7.958         -164.0          20.62          168.5          21.27          41.21
   0.02642              -45.79          8.482          60.55          54.88         -9.293          7.967         -163.8          20.66          168.5          21.34          41.27
   0.02756              -45.76          8.499          60.52          54.86         -9.296          7.976         -163.6          20.69          168.5          21.41          41.33
   0.02871              -45.73          8.518           60.5          54.83         -9.299          7.986         -163.3          20.73          168.5           21.5           41.4
   0.02986               -45.7          8.539          60.46          54.81         -9.303          7.997         -163.1          20.78          168.5          21.59          41.47
